<svg xmlns="http://www.w3.org/2000/svg" width="108" height="41" viewBox="0 0 108 41">
    <path fill="#FFF" fill-rule="evenodd" d="M77 30.865c0 2.57-2.203 3.99-4.644 3.99L70 34.787V6.594h3.659C75.033 6.594 77 7.68 77 10.587v20.278zM73.911 0H62v40.507h11.166C80.686 40.507 85 36.73 85 29.235V10.808C85 2.186 78.746 0 73.911 0zM44 25.435l2.584-12.247L49 25.435h-5zM41.99 0L34 40.507h7.845l1.466-8.355h6.23l1.393 8.355H59L51.005 0H41.99zM15.014 23.875l-.23-1.66L10.6 0H0v40.507h6.996V18.1c0-.453-.046-.815.27-.911.523-.147.642.763.642.763l4.496 22.556h4.903l5.015-23.085s.144-.544.357-.568c.244-.023.325.267.325.997v22.656H30V0H19.833l-4.82 23.875zm80.997 9.97V22.697h8.455v-6.38H96.01V6.662h9.775l1.6-6.662H88v40.507h20v-6.662H96.011z"/>
</svg>
